<svg id="Ebene_1" data-name="Ebene 1" xmlns="http://www.w3.org/2000/svg" xmlns:xlink="http://www.w3.org/1999/xlink" viewBox="0 0 1484.50299 695.11598">
    <defs>
        <style>.cls-1{fill:none;}.cls-2{clip-path:url(#clip-path);}.cls-3{fill:#f15a24;}.cls-4{fill:#00ffff;}.cls-5{fill:#009245;}.cls-6{fill:#29abe2;}.cls-7{fill:#fbb03b;}.cls-8{fill:#ed1e79;}.cls-9{fill:#2e3192;}</style>
        <clipPath id="clip-path" transform="translate(275.50299 173.4756)">
            <rect class="cls-1" x="-174.5" y="152.5" width="1334" height="195" />
        </clipPath>
    </defs>
    <g id="Ebene_1-2" data-name="Ebene 1">
        <g class="cls-2">
            <path class="cls-3" d="M-258.66626-173.4756l144.31485,287.42709L561.52307,249.84792l405.28424-60.1312s56.52326-54.118,54.118-55.32069,0-128.68073,0-128.68073L832.1134-35.17387,686.596,6.918S503.79718,40.59142,496.58142,42.99669s-239.32211-10.8236-242.93-12.02626S91.29723-14.72928,84.08156-18.33712-62.63852-148.22049-62.63852-148.22049Z" transform="translate(275.50299 173.4756)" />
        </g>
        <g class="cls-2">
            <polyline class="cls-4" points="220.08 508.71 407.689 260.969 740.816 423.323 1012.609 329.519 1214.65 612.135 666.253 695.116 0 571.247 220.08 508.71" />
        </g>
        <g class="cls-2">
            <polygon class="cls-5" points="161.503 239.476 240.503 643.476 523.503 614.476 892.503 619.476 384.503 491.476 420.503 288.476 807.503 285.476 1102.503 398.476 1004.503 563.476 1245.503 582.476 1129.503 392.476 1010.503 262.476 161.503 239.476" />
        </g>
        <g class="cls-2">
            <polygon class="cls-6" points="575.503 217.476 479.503 392.476 505.503 687.476 612.503 673.476 827.503 492.476 606.503 418.476 575.503 217.476" />
        </g>
        <g class="cls-2">
            <polygon class="cls-7" points="1231.503 359.476 1054.503 506.476 1147.503 649.476 927.503 596.476 927.503 353.476 1106.503 217.476 1231.503 359.476" />
        </g>
        <g class="cls-2">
            <polygon class="cls-8" points="371.503 360.476 190.503 573.476 567.503 433.476 972.503 474.476 827.503 380.476 535.503 347.476 371.503 360.476" />
        </g>
        <g class="cls-2">
            <polygon class="cls-8" points="1468.503 282.476 1142.503 330.476 1124.503 485.476 1310.503 512.476 1258.503 423.476 1468.503 282.476" />
        </g>
        <g class="cls-2">
            <polygon class="cls-9" points="1484.503 320.476 1317.503 320.476 1216.503 433.476 1149.503 535.476 1439.503 602.476 1484.503 320.476" />
        </g>
        <g class="cls-2">
            <polygon class="cls-9" points="95.503 282.476 250.503 339.476 197.453 423.324 266.503 506.476 100.503 560.476 46.503 412.476 95.503 282.476" />
        </g>
    </g>
</svg>